<svg xmlns="http://www.w3.org/2000/svg" xmlns:xlink="http://www.w3.org/1999/xlink" fill="none" version="1.1" width="256" height="256" viewBox="0 0 256 256"><defs><clipPath id="master_svg0_13_324"><rect x="0" y="0" width="256" height="256" rx="0"/></clipPath></defs><g style="mix-blend-mode:passthrough" clip-path="url(#master_svg0_13_324)"><g style="mix-blend-mode:passthrough"><g><path d="M61.7857,99L39.7143,99C31.591169999999998,98.9919,25.00810911,92.3928,25,84.25L25,54.75C25.00811086,46.607169999999996,31.591169999999998,40.00813055,39.7143,40L61.7857,40L61.7857,54.75L39.7143,54.75L39.7143,84.25L61.7857,84.25L61.7857,99ZM76.5,84.25L120.6429,84.25L120.6429,99L76.5,99L76.5,84.25ZM135.357,84.25L179.5,84.25L179.5,99L135.357,99L135.357,84.25ZM216.286,99L194.214,99L194.214,84.25L216.286,84.25L216.286,54.75L194.214,54.75L194.214,40L216.286,40C224.409,40.00813055,230.992,46.607169999999996,231,54.75L231,84.25C230.992,92.3928,224.409,98.9919,216.286,99ZM135.357,40L179.5,40L179.5,54.75L135.357,54.75L135.357,40ZM76.5,40L120.6429,40L120.6429,54.75L76.5,54.75L76.5,40Z" fill="#FFA5A5" fill-opacity="1"/></g><g style="mix-blend-mode:passthrough"><path d="M87.5938,67.5409L86.9062,72.3846L88.7266,72.3846L88.7266,74.5409L86.6328,74.5409L86.1328,78.3846L83.8125,78.3846L84.33594,74.5409L81.21875,74.5409L80.70312,78.3846L78.39062,78.3846L78.90625,74.5409L77.14844,74.5409L77.14844,72.3846L79.16406,72.3846L79.875,67.5409L78.05469,67.5409L78.05469,65.38461L80.13281,65.38461L80.64062,61.38461L82.96875,61.38461L82.42188,65.38461L85.54688,65.38461L86.0703,61.38461L88.3828,61.38461L87.8516,65.38461L89.6406,65.38461L89.6406,67.5409L87.5938,67.5409ZM81.47656,72.3846L84.59375,72.3846L85.28906,67.5409L82.16406,67.5409L81.47656,72.3846ZM102.2266,67.8846L102.2266,72.2284L104.2422,72.2284L104.2422,74.3846L102.2266,74.3846L102.2266,78.3846L99.5781,78.3846L99.5625,74.3846L92.5156,74.3846L92.5156,72.4706L97.3984,61.07211L99.7266,62.0018L95.3906,72.2284L99.5781,72.2284L99.9141,67.8846L102.2266,67.8846ZM118.6875,65.54868Q118.6875,66.7831,117.9688,67.6737Q117.2578,68.5643,115.8594,69.3456Q117.5469,70.0799,118.4531,71.2127Q119.3672,72.3456,119.3672,73.8299Q119.3672,75.1659,118.64840000000001,76.2596Q117.9375,77.3456,116.58590000000001,77.994Q115.2422,78.6346,113.3203,78.6346Q111.41409999999999,78.6346,110.08590000000001,77.994Q108.7656,77.3534,108.08590000000001,76.2752Q107.4062,75.1971,107.4062,73.8846Q107.4062,72.4002,108.3047,71.3377Q109.2031,70.2752,110.7031,69.6112Q109.3594,68.8924,108.7188,68.0018Q108.0781,67.1034,108.0781,65.6893Q108.0781,64.17368,108.8594,63.16586Q109.6406,62.15024,110.8594,61.64243Q112.0781,61.13461,113.39840000000001,61.13461Q114.78909999999999,61.13461,115.9922,61.63461Q117.2031,62.1268,117.9453,63.10336Q118.6875,64.07993,118.6875,65.54868ZM110.75,65.79868Q110.75,66.619,111.1328,67.1346Q111.5156,67.6424,112.2422,67.994Q112.9688,68.3456,114,68.6815Q115.0547,68.0487,115.5312,67.4002Q116.0156,66.744,116.0156,65.77524Q116.0156,64.65024,115.33590000000001,63.97055Q114.66409999999999,63.29086,113.39840000000001,63.29086Q112.1406,63.29086,111.4453,63.94711Q110.75,64.59555,110.75,65.79868ZM116.5469,73.7752Q116.5469,72.7752,116.0625,72.1815Q115.5781,71.5877,114.66409999999999,71.1893Q113.75,70.7831,112.4844,70.3534Q111.5469,70.8143,110.8828,71.6112Q110.2188,72.4081,110.2188,73.7362Q110.2188,74.994,111.0078,75.7362Q111.7969,76.4784,113.3594,76.4784Q114.9375,76.4784,115.7422,75.6971Q116.5469,74.9081,116.5469,73.7752ZM125.9453,67.0487Q126.6094,66.1502,127.52340000000001,65.64243Q128.4375,65.13461,129.5156,65.13461Q131.2266,65.13461,132.2891,65.97055Q133.3594,66.7987,133.8516,68.3143Q134.3516,69.8221,134.3516,71.869Q134.3516,73.8221,133.7578,75.3534Q133.1719,76.8846,132.0156,77.7596Q130.8672,78.6346,129.1875,78.6346Q127.0078,78.6346,125.7656,77.0174L125.6172,78.3846L123.1875,78.3846L123.1875,60.19711L125.9453,59.89243L125.9453,67.0487ZM128.4922,76.4784Q129.8984,76.4784,130.6641,75.369Q131.4375,74.2518,131.4375,71.869Q131.4375,69.4315,130.7422,68.3612Q130.0469,67.2909,128.7656,67.2909Q127.8438,67.2909,127.1328,67.8534Q126.4297,68.4081,125.9453,69.1659L125.9453,75.0331Q126.4062,75.7049,127.0469,76.0956Q127.6953,76.4784,128.4922,76.4784ZM143.3828,61.13461Q146.2422,61.13461,147.7031,63.41586Q149.1719,65.69711,149.1719,69.869Q149.1719,74.0643,147.7031,76.3534Q146.2422,78.6346,143.3828,78.6346Q140.5312,78.6346,139.0625,76.3534Q137.6016,74.0643,137.6016,69.869Q137.6016,65.69711,139.0625,63.41586Q140.5312,61.13461,143.3828,61.13461ZM143.3828,63.29086Q141.9219,63.29086,141.1328,64.82211Q140.3438,66.3456,140.3438,69.869Q140.3438,72.4393,140.66410000000002,73.8768L145.46089999999998,64.26743Q145.1094,63.7518,144.58589999999998,63.52524Q144.0703,63.29086,143.3828,63.29086ZM146.4219,69.8612Q146.4219,67.5565,146.16410000000002,66.1815L141.4297,75.6737Q142.0938,76.4784,143.3828,76.4784Q144.8594,76.4784,145.6406,74.9627Q146.4219,73.4393,146.4219,69.8612ZM161.0938,59.72836Q162.28910000000002,59.72836,163.22660000000002,59.9393Q164.1719,60.15024,164.9688,60.5018L164.1562,62.44711Q163.5078,62.15024,162.7969,62.01743Q162.08589999999998,61.88461,161.3594,61.88461Q158.85160000000002,61.88461,158.85160000000002,63.91586L158.85160000000002,66.2284L163.1953,66.2284L162.89839999999998,68.3846L158.85160000000002,68.3846L158.85160000000002,78.3846L156.1094,78.3846L156.1094,68.3846L153.1562,68.3846L153.1562,66.2284L156.1094,66.2284L156.1094,63.88461Q156.1094,62.03305,157.47660000000002,60.88461Q158.8438,59.72836,161.0938,59.72836ZM179.047,76.2284L179.047,78.3846L168.7656,78.3846L168.7656,76.2284L172.91410000000002,76.2284L172.91410000000002,64.28305L169.1719,66.5877L167.9922,64.65805L173.21089999999998,61.38461L175.64839999999998,61.38461L175.64839999999998,76.2284L179.047,76.2284Z" fill="#FFA5A5" fill-opacity="1"/></g></g><g style="mix-blend-mode:passthrough"><g style="mix-blend-mode:passthrough"><rect x="25" y="157" width="206" height="59" rx="15" fill="#48B0F1" fill-opacity="1"/></g><g style="mix-blend-mode:passthrough"><path d="M89.8984,182.7518Q89.8984,184.744,89.0469,185.994Q88.1953,187.2362,86.6953,187.8143Q85.20312,188.3846,83.25781,188.3846L81.20312,188.3846L81.20312,194.3846L78.35156,194.3846L78.35156,177.38461L83.0625,177.38461Q86.2656,177.38461,88.0781,178.70493Q89.8984,180.02524,89.8984,182.7518ZM86.8906,182.7909Q86.8906,181.02524,85.89844,180.28305Q84.91406,179.54086,83.25,179.54086L81.20312,179.54086L81.20312,186.2284L83.28906,186.2284Q84.88281,186.2284,85.88281,185.4862Q86.8906,184.7362,86.8906,182.7909ZM93.3125,194.3846L93.3125,192.2284L95.2188,192.2284L95.2188,183.5409L93.3125,183.5409L93.3125,181.38461L97.3281,181.38461L97.8281,184.4627Q98.5547,182.8377,99.6328,181.98618Q100.7109,181.13461,102.4062,181.13461Q102.9844,181.13461,103.4453,181.20493Q103.9141,181.27524,104.3672,181.38461L103.8984,186.1659L101.9297,186.1659L101.9297,183.6346Q100.5469,183.6346,99.5469,184.6659Q98.5547,185.6971,97.9766,187.5643L97.9766,192.2284L100.6016,192.2284L100.6016,194.3846L93.3125,194.3846ZM113.375,174.88461Q114.1875,174.88461,114.6797,175.38461Q115.1797,175.8768,115.1797,176.61899Q115.1797,177.36899,114.6797,177.8768Q114.1875,178.38461,113.375,178.38461Q112.58590000000001,178.38461,112.0781,177.8768Q111.5781,177.36899,111.5781,176.61899Q111.5781,175.8768,112.0781,175.38461Q112.58590000000001,174.88461,113.375,174.88461ZM115.28909999999999,181.38461L115.28909999999999,192.2284L118.8281,192.2284L118.8281,194.3846L108.64840000000001,194.3846L108.64840000000001,192.2284L112.53909999999999,192.2284L112.53909999999999,183.5409L108.7656,183.5409L108.7656,181.38461L115.28909999999999,181.38461ZM132.1484,181.13461Q132.8906,181.13461,133.4766,181.45493Q134.0703,181.76743,134.4062,182.5721Q134.75,183.369,134.75,184.7909L134.75,194.3846L132.2969,194.3846L132.2969,185.1815Q132.2969,184.1659,132.1562,183.7284Q132.0156,183.2909,131.4219,183.2909Q130.9531,183.2909,130.4688,183.6034Q129.9844,183.9159,129.5078,184.6815L129.5078,194.3846L127.27340000000001,194.3846L127.27340000000001,185.1815Q127.27340000000001,184.1659,127.1328,183.7284Q126.9922,183.2909,126.4062,183.2909Q125.9219,183.2909,125.4375,183.6034Q124.96090000000001,183.9159,124.4844,184.6815L124.4844,194.3846L122.02340000000001,194.3846L122.02340000000001,181.38461L124.10159999999999,181.38461L124.28909999999999,182.8612Q124.8438,182.0956,125.4844,181.61899Q126.1328,181.13461,127.0703,181.13461Q127.8047,181.13461,128.4062,181.49399Q129.0156,181.85336,129.2969,182.7752Q129.8516,182.0487,130.5234,181.59555Q131.2031,181.13461,132.1484,181.13461ZM148.125,191.0565Q148.125,191.8143,148.3594,192.1502Q148.5938,192.4862,149.1094,192.6581L148.4922,194.6268Q147.5312,194.5096,146.83589999999998,194.0721Q146.1406,193.6268,145.7969,192.7284Q145.08589999999998,193.6893,143.9844,194.1659Q142.8906,194.6346,141.64839999999998,194.6346Q139.6641,194.6346,138.5156,193.5331Q137.375,192.4237,137.375,190.6268Q137.375,188.5877,138.9766,187.4862Q140.5781,186.3846,143.5547,186.3846L145.41410000000002,186.3846L145.41410000000002,185.5643Q145.41410000000002,184.3456,144.64839999999998,183.8221Q143.8906,183.2909,142.52339999999998,183.2909Q141.8828,183.2909,140.9688,183.4627Q140.0625,183.6268,139.0625,183.9784L138.3906,182.0331Q139.6094,181.57211,140.77339999999998,181.35336Q141.9453,181.13461,142.9453,181.13461Q145.5469,181.13461,146.83589999999998,182.2674Q148.125,183.3924,148.125,185.3924L148.125,191.0565ZM142.4844,192.4784Q143.3203,192.4784,144.1172,192.0331Q144.9219,191.5877,145.41410000000002,190.7909L145.41410000000002,187.8846L143.8906,187.8846Q141.9453,187.8846,141.1094,188.5409Q140.27339999999998,189.1893,140.27339999999998,190.3299Q140.27339999999998,192.4784,142.4844,192.4784ZM153.3125,194.3846L153.3125,192.2284L155.2188,192.2284L155.2188,183.5409L153.3125,183.5409L153.3125,181.38461L157.3281,181.38461L157.8281,184.4627Q158.5547,182.8377,159.6328,181.98618Q160.71089999999998,181.13461,162.4062,181.13461Q162.9844,181.13461,163.4453,181.20493Q163.91410000000002,181.27524,164.3672,181.38461L163.89839999999998,186.1659L161.9297,186.1659L161.9297,183.6346Q160.5469,183.6346,159.5469,184.6659Q158.5547,185.6971,157.97660000000002,187.5643L157.97660000000002,192.2284L160.60160000000002,192.2284L160.60160000000002,194.3846L153.3125,194.3846ZM179.562,181.38461L175.08589999999998,194.4706Q174.5781,195.9549,173.78910000000002,197.0877Q173,198.2284,171.7656,198.9081Q170.53910000000002,199.5956,168.7188,199.7596L168.3594,197.6659Q169.6797,197.4549,170.46089999999998,197.0487Q171.2422,196.6502,171.7031,195.994Q172.16410000000002,195.3377,172.52339999999998,194.3846L171.58589999999998,194.3846L167.2031,181.38461L170.1328,181.38461L173.4062,192.4784L176.73399999999998,181.38461L179.562,181.38461Z" fill="#EEEEEE" fill-opacity="1"/></g></g><g style="mix-blend-mode:passthrough"><g><path d="M110.41883452348007,124.6363885288086C111.04447852348007,123.92488792880859,112.14361852348007,123.84287052880859,112.87309852348007,124.4532515288086L127.97914852348008,137.0716795288086L143.0851485234801,124.4532505288086C143.81014852348008,123.8061575288086,144.94084852348007,123.8725935288086,145.58074852348008,124.5998875288086C146.22074852348007,125.3271795288086,146.11584852348008,126.42644952880859,145.34924852348007,127.0262195288086L129.11114852348007,140.5919795288086C128.45964852348007,141.1359795288086,127.49854852348007,141.1359795288086,126.84714852348007,140.5919795288086L110.60904952348007,127.0262195288086C109.88056652348007,126.41660952880859,109.79647452348007,125.3470595288086,110.42115252348007,124.63638552880859L110.41883452348007,124.6363885288086Z" fill-rule="evenodd" fill="#48B0F1" fill-opacity="1"/></g><g><path d="M111.74117,115C111.01251,114.999472805,110.3607,115.441574,110.10803,116.10771C109.855361,116.77385,110.0553615,117.52288,110.609145,117.98446L126.8472,131.5502C127.4967,132.0928,128.4594,132.0928,129.1113,131.5502L145.3493,117.98446C145.9031,117.52289,146.10309999999998,116.77385,145.8504,116.10771C145.5978,115.441576,144.9459,114.999472805,144.2173,115L111.74117,115Z" fill="#FFA5A5" fill-opacity="1"/></g></g></g></svg>